<svg width="800" height="800" viewBox="0 0 800 800" fill="none" xmlns="http://www.w3.org/2000/svg">
<rect width="800" height="800" rx="80" fill="#0F0F0F"/>
<g clip-path="url(#clip0_4386_2)">
<path d="M539.14 123.9C518.42 113.54 496.38 105.38 473.32 99.7H473.28C473 99.82 472.74 99.92 472.46 100.04C471.76 100.34 471.06 100.64 470.36 100.92C469.8 101.14 469.26 101.38 468.72 101.62C468.72 101.62 468.74 101.62 468.74 101.64C451.76 109.1 431.16 120.62 407.52 137.32L466.16 173.48L467.2 174.12L468.12 174.92C472.54 178.92 474.6 183.86 474.28 189.7V189.76L474.26 190.08C473.78 199.84 465.9 206.9 455.54 206.9C454.34 206.9 453.4 206.8 452.96 206.76L452.26 206.66L451.58 206.5C427.76 200.9 302.36 181.94 301.1 181.74L300.08 181.6L299.1 181.3C297.1 180.66 279.6 174.72 275.66 157.08C273.62 149.64 270.34 137.16 266.44 119.98C164.62 168.52 90.02 272.72 90.02 400.94C90.02 529.16 159.24 629.34 261.24 679.22C280.78 688.78 301.54 696.32 323.24 701.58H323.26C323.26 701.58 323.32 701.62 323.38 701.62C324.28 701.26 325.2 700.9 326.14 700.5C326.46 700.38 326.78 700.26 327.12 700.12C327.38 700.02 327.64 699.9 327.9 699.8C328.44 699.56 328.98 699.34 329.54 699.1C330.12 698.88 330.7 698.62 331.26 698.38C331.24 698.38 331.24 698.36 331.22 698.36C348.18 690.9 368.8 679.38 392.46 662.68L333.8 626.52L332.76 625.88L331.86 625.08C327.44 621.08 325.36 616.14 325.7 610.3V610.24L325.72 609.92C326.2 600.16 334.08 593.1 344.44 593.1C345.64 593.1 346.56 593.18 347 593.24L347.7 593.34L348.38 593.5C372.22 599.1 497.62 618.06 498.88 618.24L499.88 618.4L500.86 618.7C502.86 619.34 520.36 625.28 524.32 642.92C526.38 650.46 529.72 663.2 533.7 680.76C640.5 630.92 709.98 523.52 709.98 399.82C709.98 276.12 640.34 174.5 539.14 123.9ZM400 572.9C303.88 572.9 225.94 495.66 225.94 400.38C225.94 305.1 303.88 227.86 400 227.86C496.12 227.86 574.04 305.1 574.04 400.38C574.04 495.66 496.12 572.9 400 572.9ZM520.26 682.12C520.06 681.26 519.88 680.4 519.68 679.58C519.28 677.82 518.88 676.14 518.5 674.5C518.36 673.9 518.22 673.32 518.08 672.74C517.86 671.8 517.64 670.88 517.42 669.98C517.22 669.14 517.02 668.32 516.82 667.52C516.62 666.64 516.4 665.78 516.2 664.96C516.04 664.36 515.9 663.78 515.76 663.2C515.18 660.82 514.62 658.66 514.12 656.74C514.04 656.36 513.94 655.98 513.84 655.62C513.74 655.24 513.64 654.9 513.56 654.54C512.48 650.36 511.7 647.54 511.3 646.12C509.06 635.3 496.88 631.5 496.88 631.5C496.88 631.5 369.96 612.34 345.32 606.54C345.32 606.54 344.96 606.5 344.44 606.5H344.34C343.94 606.5 343.46 606.54 342.94 606.62C342.64 606.68 342.34 606.74 342.06 606.84C341.76 606.92 341.48 607.04 341.22 607.18C340.94 607.32 340.68 607.48 340.44 607.68C340.08 607.98 339.76 608.36 339.52 608.86C339.44 609.02 339.38 609.18 339.32 609.36C339.26 609.54 339.2 609.74 339.18 609.94C339.14 610.14 339.12 610.36 339.1 610.58C339.1 611.58 338.6 613.1 340.84 615.12L410.76 658.22C410.76 658.22 411.34 658.56 411.94 659.18C412.08 659.34 412.22 659.5 412.36 659.7C412.78 660.26 413.1 660.98 413.1 661.84C413.1 663.14 412.36 664.72 410.02 666.54C410 666.54 409.52 666.88 408.66 667.52C408.5 667.64 408.3 667.78 408.1 667.94C407.92 668.06 407.74 668.2 407.54 668.36C406.22 669.32 404.4 670.64 402.18 672.22C401.72 672.54 401.24 672.88 400.74 673.24C400.64 673.32 400.52 673.4 400.42 673.46C400 673.76 399.56 674.06 399.1 674.4C398.52 674.78 397.94 675.2 397.34 675.62C396.98 675.86 396.6 676.12 396.22 676.38C384.72 684.3 367.22 695.64 348.34 705.14C347.62 705.52 346.9 705.88 346.18 706.24C362.76 708.96 379.8 710.36 397.2 710.36C441.9 710.36 483.68 701.76 521.2 686.24C521.18 686.16 521.16 686.1 521.16 686.02C520.84 684.7 520.56 683.4 520.26 682.12ZM459.14 184.88L389.22 141.78C389.22 141.78 386.88 140.44 386.88 138.16C386.88 136.86 387.62 135.28 389.96 133.46C390.1 133.46 418.54 111.6 451.18 95.08C433.28 92 414.88 90.4 396.1 90.4C355.28 90.4 315.52 98.84 278.9 114.36C283.9 136.52 287.66 150.14 288.68 153.88C290.92 164.7 303.1 168.5 303.1 168.5C303.1 168.5 430.02 187.66 454.66 193.46C454.66 193.46 455 193.5 455.54 193.5C455.96 193.5 456.48 193.48 457.06 193.38C457.48 193.3 457.92 193.18 458.34 193.02C458.48 192.96 458.62 192.9 458.76 192.82C459.18 192.62 459.56 192.34 459.88 191.98C460 191.86 460.1 191.74 460.2 191.6C460.58 191.04 460.82 190.32 460.88 189.42C460.88 188.42 461.38 186.9 459.14 184.88Z" fill="white"/>
<path d="M300.41 400.48L452.19 306.93V494.03L300.41 400.48Z" fill="white"/>
<path d="M539.9 798.36C539.36 799.26 538.12 800 536.56 800C536.32 800 536.06 799.98 535.8 799.94C535.54 799.9 535.28 799.84 535.02 799.76C534.88 799.72 534.76 799.68 534.62 799.62C534.34 799.52 534.06 799.4 533.78 799.24C533.5 799.08 533.22 798.9 532.94 798.68C532.64 798.48 532.36 798.24 532.08 797.98C531.8 797.7 531.52 797.4 531.22 797.06C530.8 796.56 530.38 796 529.96 795.34L488.14 733.32C488.14 733.32 488.08 733.2 487.94 732.98C487.9 732.92 487.86 732.86 487.82 732.8C487.78 732.74 487.74 732.68 487.7 732.6C487.68 732.6 487.68 732.58 487.68 732.58C487.5 732.32 487.26 732 486.94 731.68C486.8 731.52 486.64 731.34 486.46 731.18C486.18 730.92 485.84 730.66 485.46 730.42C485.36 730.36 485.24 730.3 485.12 730.24C484.96 730.14 484.78 730.06 484.62 730C484.46 729.94 484.3 729.88 484.14 729.84C483.74 729.72 483.32 729.66 482.86 729.66C481.98 729.66 481 729.92 479.92 730.54L479.88 730.58L479.74 730.72C479.66 730.78 479.56 730.88 479.46 730.98C479.18 731.24 478.8 731.6 478.3 732.06C478.26 732.1 478.22 732.14 478.16 732.18C477.94 732.4 477.68 732.62 477.42 732.88C475.78 734.38 473.42 736.52 470.42 739.12C469.62 739.82 468.78 740.54 467.9 741.28C467.44 741.68 466.96 742.1 466.46 742.5C466.02 742.88 465.56 743.24 465.12 743.62C464.64 744.04 464.14 744.44 463.64 744.86C462.62 745.68 461.58 746.52 460.5 747.4C459.42 748.28 458.32 749.16 457.16 750.06C456.02 750.96 454.84 751.88 453.62 752.82C452.4 753.74 451.16 754.7 449.9 755.64C448.62 756.6 447.32 757.54 446 758.5C444.66 759.46 443.32 760.42 441.94 761.4C439.88 762.84 437.76 764.3 435.58 765.72C434.14 766.68 432.68 767.62 431.2 768.56C429.72 769.5 428.22 770.44 426.7 771.36C425.78 771.92 424.84 772.48 423.9 773.02C422.72 773.72 421.52 774.42 420.3 775.1C419.36 775.64 418.42 776.16 417.46 776.68C415.9 777.52 414.32 778.36 412.74 779.16C408.98 781.08 405.16 782.84 401.34 784.42C400.4 784.82 399.44 785.2 398.48 785.58C398.44 785.6 398.38 785.6 398.34 785.64C397.64 785.92 396.94 786.18 396.22 786.44C394.82 786.94 393.4 787.44 392 787.9C391.3 788.14 390.58 788.36 389.88 788.56C389.02 788.82 388.18 789.06 387.32 789.3C386.74 789.46 386.18 789.62 385.6 789.76C385.04 789.92 384.46 790.06 383.88 790.18C383.66 790.24 383.46 790.28 383.24 790.32C382.6 790.48 381.98 790.62 381.34 790.74C380.6 790.9 379.86 791.04 379.14 791.16C378.5 791.28 377.88 791.38 377.26 791.46C376.16 791.64 375.08 791.78 374.02 791.88C373.42 791.96 372.84 792 372.24 792.04C371.5 792.1 370.78 792.16 370.06 792.18C369.2 792.22 368.34 792.24 367.5 792.24H367.48C362.64 792.24 357.96 791.62 353.5 790.28C353.5 790.28 330.34 777.94 310.68 761.3C306.54 757.82 302.7 754.5 299.16 751.34C298.72 750.96 298.28 750.56 297.84 750.16C294.58 747.24 291.58 744.46 288.82 741.84C287.92 740.96 287.04 740.12 286.2 739.3C284.44 737.58 282.8 735.94 281.24 734.36C279.7 732.78 278.24 731.26 276.88 729.8C276.54 729.44 276.2 729.08 275.88 728.72C275.56 728.38 275.24 728.02 274.92 727.68C274.58 727.32 274.28 727 273.98 726.66C273.38 725.98 272.8 725.32 272.22 724.68C271.92 724.36 271.64 724.04 271.4 723.72C271.12 723.42 270.86 723.1 270.6 722.8C270.32 722.48 270.06 722.2 269.82 721.9C268.56 720.42 267.44 719.04 266.44 717.76C266.04 717.26 265.66 716.76 265.3 716.3C264.94 715.82 264.6 715.36 264.26 714.92C264.04 714.64 263.84 714.38 263.66 714.12C263.4 713.74 263.16 713.4 262.9 713.06C262.72 712.8 262.54 712.56 262.38 712.32C262.18 712 261.98 711.7 261.78 711.42C261.64 711.24 261.54 711.08 261.44 710.92C260.82 709.96 260.32 709.14 259.94 708.5C259.8 708.28 259.68 708.08 259.6 707.9C259.42 707.56 259.28 707.28 259.16 707.06C259.14 707.04 259.12 707.02 259.14 707C259.1 706.88 259.06 706.8 259.02 706.72C258.98 706.68 258.98 706.64 258.98 706.6C258.96 706.54 258.96 706.5 258.96 706.48V706.46C259.02 706.46 259.18 706.68 259.42 707.12H259.46C259.88 707.84 260.3 708.52 260.74 709.18C260.96 709.52 261.2 709.84 261.42 710.16C261.9 710.8 262.36 711.4 262.86 711.98C263.36 712.56 263.86 713.12 264.38 713.66C264.64 713.92 264.9 714.18 265.18 714.44C265.72 714.94 266.28 715.42 266.84 715.88C267.42 716.34 268 716.76 268.6 717.18C269.18 717.58 269.8 717.98 270.42 718.34C271.04 718.7 271.68 719.04 272.32 719.36C272.88 719.64 273.46 719.9 274.04 720.12C274.22 720.22 274.4 720.28 274.56 720.34C274.6 720.36 274.64 720.38 274.68 720.38C275.24 720.62 275.8 720.82 276.36 721C277.06 721.24 277.76 721.44 278.48 721.64C279.2 721.82 279.94 722 280.68 722.14C281.42 722.3 282.16 722.42 282.94 722.54C283.7 722.64 284.46 722.74 285.24 722.8C286.02 722.88 286.82 722.94 287.62 722.96C288.42 723 289.22 723.02 290.04 723.02C290.86 723.02 291.64 723 292.44 722.96C293.1 722.94 293.78 722.9 294.46 722.86C295.04 722.82 295.62 722.76 296.2 722.7C297.14 722.62 298.08 722.52 299.04 722.38C299.8 722.28 300.58 722.16 301.36 722.04C302.14 721.92 302.94 721.78 303.72 721.62C304.48 721.48 305.24 721.32 306 721.16C307.02 720.94 308.08 720.7 309.12 720.44C309.72 720.3 310.34 720.14 310.94 719.98C311.86 719.74 312.76 719.5 313.68 719.24C315.22 718.8 316.76 718.32 318.3 717.82C322.88 716.34 327.5 714.58 332.12 712.66C333.12 712.24 334.14 711.8 335.14 711.38C337.08 710.52 339 709.66 340.92 708.74C341.74 708.38 342.56 707.98 343.38 707.58C344.3 707.14 345.24 706.7 346.16 706.24H346.18C346.9 705.88 347.62 705.52 348.34 705.14C367.22 695.64 384.72 684.3 396.22 676.38C396.6 676.12 396.98 675.86 397.34 675.62C397.94 675.2 398.52 674.78 399.1 674.4C399.56 674.06 400 673.76 400.42 673.46C400.52 673.4 400.64 673.32 400.74 673.24C401.24 672.88 401.72 672.54 402.18 672.22C404.4 670.64 406.22 669.32 407.54 668.36C407.74 668.2 407.92 668.06 408.1 667.94C408.3 667.78 408.5 667.64 408.66 667.52C409.52 666.88 410 666.54 410.02 666.54C412.36 664.72 413.1 663.14 413.1 661.84C413.1 660.98 412.78 660.26 412.36 659.7C412.22 659.5 412.08 659.34 411.94 659.18C411.34 658.56 410.76 658.22 410.76 658.22L340.84 615.12C338.6 613.1 339.1 611.58 339.1 610.58C339.12 610.36 339.14 610.14 339.18 609.94C339.2 609.74 339.26 609.54 339.32 609.36C339.38 609.18 339.44 609.02 339.52 608.86C339.76 608.36 340.08 607.98 340.44 607.68C340.68 607.48 340.94 607.32 341.22 607.18C341.48 607.04 341.76 606.92 342.06 606.84C342.34 606.74 342.64 606.68 342.94 606.62C343.46 606.54 343.94 606.5 344.34 606.5H344.44C344.96 606.5 345.32 606.54 345.32 606.54C369.96 612.34 496.88 631.5 496.88 631.5C496.88 631.5 509.06 635.3 511.3 646.12C511.7 647.54 512.48 650.36 513.56 654.54C513.64 654.9 513.74 655.24 513.84 655.62C513.94 655.98 514.04 656.36 514.12 656.74C514.62 658.66 515.18 660.82 515.76 663.2C515.9 663.78 516.04 664.36 516.2 664.96C516.4 665.78 516.62 666.64 516.82 667.52C517.02 668.32 517.22 669.14 517.42 669.98C517.64 670.88 517.86 671.8 518.08 672.74C518.22 673.32 518.36 673.9 518.5 674.5C518.88 676.14 519.28 677.82 519.68 679.58C519.88 680.4 520.06 681.26 520.26 682.12C520.56 683.4 520.84 684.7 521.16 686.02C521.16 686.1 521.18 686.16 521.2 686.24C522.02 689.9 522.88 693.8 523.78 697.94C523.96 698.78 524.14 699.62 524.32 700.48C524.48 701.34 524.68 702.22 524.86 703.1C525.04 703.98 525.24 704.86 525.42 705.76C525.72 707.22 526.02 708.72 526.34 710.22C526.54 711.2 526.74 712.2 526.94 713.2C527.58 716.34 528.22 719.56 528.86 722.88C529.2 724.58 529.52 726.32 529.86 728.06C531.6 737.14 533.36 746.92 535.14 757.34C535.46 759.16 535.76 761.02 536.08 762.88C536.1 763.06 536.14 763.24 536.18 763.44C536.34 764.46 536.52 765.5 536.68 766.54C538.1 775.14 539.52 784.16 540.9 793.56C540.9 793.56 541.64 795.58 539.9 798.36Z" fill="white"/>
<path d="M331.22 698.36C330.66 698.6 330.1 698.86 329.54 699.1C330.12 698.88 330.7 698.62 331.26 698.38C331.24 698.38 331.24 698.36 331.22 698.36Z" fill="white"/>
<path d="M541 93.54C541 93.54 540.98 93.54 540.96 93.5C540.92 93.48 540.9 93.44 540.86 93.38C540.78 93.26 540.68 93.1 540.56 92.88H540.52C537.22 87.16 532.84 83.18 527.64 80.64C527 80.32 526.34 80.02 525.66 79.76C525 79.48 524.32 79.22 523.62 79H523.6C522.9 78.76 522.2 78.56 521.5 78.36H521.48C520.76 78.18 520.04 78 519.3 77.86C518.56 77.7 517.8 77.58 517.04 77.46C516.28 77.36 515.52 77.26 514.74 77.2H514.72C513.94 77.12 513.16 77.06 512.36 77.04C511.56 77 510.76 76.98 509.94 76.98C492.4 76.98 471.02 85.04 451.2 95.08H451.18C418.54 111.6 390.1 133.46 389.96 133.46C387.62 135.28 386.88 136.86 386.88 138.16C386.88 140.44 389.22 141.78 389.22 141.78L459.14 184.88C461.38 186.9 460.88 188.42 460.88 189.42C460.82 190.32 460.58 191.04 460.2 191.6C460.1 191.74 460 191.86 459.88 191.98C459.56 192.34 459.18 192.62 458.76 192.82C458.62 192.9 458.48 192.96 458.34 193.02C457.92 193.18 457.48 193.3 457.06 193.38C456.48 193.48 455.96 193.5 455.54 193.5C455 193.5 454.66 193.46 454.66 193.46C430.02 187.66 303.1 168.5 303.1 168.5C303.1 168.5 290.92 164.7 288.68 153.88C287.66 150.14 283.9 136.52 278.9 114.36C273.2 88.96 265.86 52.34 259.08 6.44C259.08 6.44 258.34 4.42 260.08 1.64C260.42 1.06 261.06 0.56 261.88 0.26C262.2 0.14 262.58 0.06 262.96 0.04C263.1 0 263.24 0 263.38 0H263.42C263.6 0 263.76 0 263.94 0.04C264.02 0.04 264.1 0.04 264.16 0.06C264.42 0.1 264.68 0.16 264.96 0.24C265.08 0.28 265.22 0.32 265.36 0.38C265.44 0.4 265.52 0.44 265.6 0.48L265.62 0.5C265.8 0.56 266 0.66 266.2 0.76C266.9 1.16 267.62 1.7 268.32 2.46C268.62 2.76 268.9 3.08 269.18 3.46C269.46 3.82 269.74 4.22 270.02 4.66L311.84 66.68C311.84 66.68 312.02 67.04 312.38 67.54C312.54 67.74 312.7 67.96 312.88 68.16C313.76 69.16 315.18 70.34 317.1 70.34C317.98 70.34 318.98 70.08 320.06 69.46C320.06 69.46 326.3 63.44 336.34 55.14C337.36 54.32 338.4 53.48 339.48 52.6C340.56 51.72 341.66 50.84 342.82 49.94C343.96 49.04 345.14 48.12 346.36 47.18C347.58 46.26 348.82 45.3 350.08 44.36C351.36 43.42 352.66 42.46 353.98 41.5C355.32 40.54 356.66 39.58 358.04 38.6C360.1 37.16 362.22 35.7 364.4 34.28C365.84 33.32 367.3 32.38 368.78 31.44C370.26 30.5 371.76 29.56 373.28 28.64C376.3 26.8 379.38 25.02 382.52 23.32C384.08 22.48 385.66 21.64 387.24 20.84C402.28 13.2 418.06 7.76 432.48 7.76C437.32 7.76 442.02 8.38 446.48 9.72C446.48 9.72 469.64 22.06 489.3 38.7C532.18 74.64 541.44 93.54 541 93.54Z" fill="white"/>
<path d="M468.72 101.62C468.72 101.62 468.74 101.62 468.74 101.64C469.28 101.4 469.82 101.16 470.36 100.92C469.8 101.14 469.26 101.38 468.72 101.62ZM316.56 70.04C316.74 70.1 316.94 70.24 317.12 70.24C318.12 70.24 318.86 70 320.12 69.26C318.7 69.96 317.5 70.2 316.56 70.04ZM264.88 0H263.42C263.6 0 263.76 0 263.94 0.04C264.02 0.04 264.1 0.04 264.16 0.06C264.42 0.1 264.68 0.16 264.96 0.24C265.08 0.28 265.22 0.32 265.36 0.38C265.44 0.4 265.5 0.42 265.58 0.46C265.36 0.24 265.1 0 264.88 0ZM262.38 0C262.12 0 261.88 0.26 261.88 0.26C262.2 0.14 262.58 0.06 262.96 0.04C263.1 0 263.24 0 263.38 0H262.38Z" fill="white"/>
<path d="M264.24 689.94C276.68 713.04 303.96 708.54 323.24 701.58C301.54 696.32 280.78 688.78 261.24 679.22C262.36 686.46 264.24 689.94 264.24 689.94Z" fill="white"/>
<path d="M535.74 110.06C523.08 86.54 495.02 91.64 475.68 98.8C474.88 99.1 474.08 99.4 473.32 99.7C496.38 105.38 518.42 113.54 539.14 123.9C538.16 114.54 535.74 110.06 535.74 110.06Z" fill="white"/>
</g>
<defs>
<clipPath id="clip0_4386_2">
<rect width="800" height="800" fill="white"/>
</clipPath>
</defs>
</svg>
